PathFileType	4	(X/Y/Z)	PS_ngait_og_ss11.trc	
DataRate	CameraRate	NumFrames	NumMarkers	Units	OrigDataRate	OrigDataStartFrame	OrigNumFrames	
120.00	120.00	7	39	mm	120.00	783	132	
Frame#	Time	Sternum			Neck			RShoulder			LShoulder			Xiphoid			Thoracic			RAsis			LAsis			RPsis			LPsis			LThighSuperior			LThighInferior			LThighLateral			LShankSuperior			LShankInferior			LShankLateral			RThighSuperior			RThighInferior			RThighLateral			RShankSuperior			RShankInferior			RShankLateral			RHeel			RToe			RMidfootMedial			RMidfootLateral			RHindfoot			RMidfootSuperior			RToeMedial			RToeLateral			LHeel			LToe			LMidfootMedial			LMidfootLateral			LHindfoot			LMidfootSuperior			LToeMedial			LToeLateral			Sacral			
		X1	Y1	Z1	X2	Y2	Z2	X3	Y3	Z3	X4	Y4	Z4	X5	Y5	Z5	X6	Y6	Z6	X7	Y7	Z7	X8	Y8	Z8	X9	Y9	Z9	X10	Y10	Z10	X11	Y11	Z11	X12	Y12	Z12	X13	Y13	Z13	X14	Y14	Z14	X15	Y15	Z15	X16	Y16	Z16	X17	Y17	Z17	X18	Y18	Z18	X19	Y19	Z19	X20	Y20	Z20	X21	Y21	Z21	X22	Y22	Z22	X23	Y23	Z23	X24	Y24	Z24	X25	Y25	Z25	X26	Y26	Z26	X27	Y27	Z27	X28	Y28	Z28	X29	Y29	Z29	X30	Y30	Z30	X31	Y31	Z31	X32	Y32	Z32	X33	Y33	Z33	X34	Y34	Z34	X35	Y35	Z35	X36	Y36	Z36	X37	Y37	Z37	X38	Y38	Z38	X39	Y39	Z39	

50	0.408	573.64874	1456.62866	139.81000	409.33783	1555.68750	135.58372	453.20972	1548.43152	298.55511	443.77524	1544.63794	0.77556	604.83234	1297.60425	152.50867	326.63330	1338.68140	150.89075	512.03827	1031.75574	297.09753	523.15820	1027.90564	23.01341	326.17426	1061.78748	210.79927	323.17633	1052.52539	106.89162	424.84247	842.19763	-17.60746	432.91040	617.06989	21.51147	520.78369	714.03485	63.00816	402.46069	379.08755	27.03116	347.19125	185.41812	67.09601	409.34909	273.74133	100.87582	503.56473	845.63586	350.81418	586.98718	623.68317	332.57599	618.49756	792.66840	281.81494	586.14435	469.33179	346.78970	597.89496	214.06308	318.20395	647.25208	343.04492	274.40497	524.30255	86.54895	264.68484	836.87622	100.36472	279.04477	744.06281	71.10203	227.87868	738.47058	66.58367	342.73819	687.88763	63.49119	333.61597	699.06781	127.03319	278.12717	786.31189	79.20234	231.28073	786.74988	79.46469	334.76141	240.12372	66.40929	124.74556	553.26288	55.26549	85.43558	455.90305	35.97358	147.82549	446.71582	32.35232	29.88510	392.29901	30.95262	44.15581	429.92059	95.10891	99.67810	498.95193	35.19632	139.22639	491.98663	40.43602	35.57569	324.67529	1057.15649	158.84544 
51	0.417	582.12164	1455.55872	140.30952	418.01898	1554.72278	135.87741	461.89658	1547.50012	298.88046	452.40594	1543.49658	1.16941	613.30939	1296.41553	152.92227	335.14096	1337.69519	151.66895	520.91345	1030.38635	297.36447	531.06964	1027.13525	23.10986	334.78104	1060.78198	211.77896	331.37070	1051.64734	107.68836	431.17612	841.28693	-17.52307	437.85654	616.60565	21.50593	526.50513	712.65991	62.72881	405.29089	378.75513	26.91361	348.47873	185.40021	67.36850	411.10278	273.35339	100.20907	510.65027	843.91467	351.45709	593.17761	621.69855	331.55502	625.46887	790.36383	281.79291	597.71796	466.46390	345.51495	621.62207	212.34500	317.79623	665.39374	343.48169	274.39465	554.53149	80.94477	263.43704	866.46948	109.71063	281.16367	775.43994	75.98940	229.03592	768.96033	71.12039	343.54016	718.81982	65.64529	334.01071	727.55481	129.74103	278.99316	817.41510	86.17677	232.93680	816.89777	86.39754	336.41724	240.22540	66.49573	124.92263	553.41864	55.01203	85.36821	455.80206	36.03675	147.91037	446.89584	31.78411	30.13602	392.30472	30.86213	43.99820	429.88586	95.16476	99.50435	499.06018	35.24958	139.22455	492.18619	39.89923	35.53960	333.07587	1056.21460	159.73366 
52	0.425	590.57678	1454.22302	140.79221	426.69101	1553.62659	136.27167	470.57654	1546.46240	299.32623	460.98599	1542.15906	1.59584	621.74756	1295.18140	153.15324	343.63806	1336.61340	152.50705	529.96313	1028.82642	297.35690	539.01202	1026.29797	23.24547	343.51074	1059.69421	212.64156	339.63022	1050.73108	108.58851	437.88110	840.71259	-17.06075	442.88687	616.13873	21.42521	532.59796	711.62152	62.82738	408.35770	378.36731	26.45166	349.24106	185.79021	67.30244	412.63727	272.87894	100.12032	517.26550	841.83118	351.88406	598.89630	619.27264	330.48068	632.23541	787.57959	281.80829	608.59015	463.99747	344.47778	644.39288	211.46025	317.29868	682.82880	344.38867	274.57132	584.35114	76.31956	262.38873	894.28394	119.76965	283.17514	805.66620	82.02778	230.05594	797.91705	75.92555	344.16174	748.46320	68.58594	334.37305	754.58032	132.98073	279.77328	846.90002	94.17017	234.33420	845.39771	93.70023	337.80417	240.39189	66.80049	125.05821	553.55902	54.79472	85.38668	455.31229	36.02922	148.63988	446.92569	31.70247	30.15387	392.35196	30.92507	44.11120	430.21658	94.99423	99.62610	499.27133	35.26437	139.39886	492.18616	39.71981	35.71960	341.57050	1055.21265	160.61504 
53	0.433	599.00153	1452.95984	141.22061	435.26263	1552.47729	136.69936	479.15460	1545.40430	299.77988	469.42822	1540.81116	2.04656	630.14069	1293.85095	153.27773	352.13220	1335.45471	153.54030	538.89862	1027.08496	297.38959	547.08557	1025.39844	23.42757	352.21069	1058.43042	213.37181	348.01190	1049.67041	109.52913	444.60596	839.95099	-16.90591	448.16895	615.48529	21.18427	538.71045	710.39581	62.61847	411.31396	378.14566	26.78570	349.91760	186.23085	67.11010	414.25677	272.69040	100.20153	523.47516	839.41376	352.06421	604.20239	616.55670	329.42197	638.66681	784.44189	282.04874	619.19531	461.53085	343.42331	666.40063	210.96745	316.91220	699.54724	345.41245	274.42465	612.68677	72.98373	261.56857	920.66803	129.82918	285.33087	834.48755	88.23938	231.08888	825.77924	81.33982	344.96780	776.41113	72.27882	335.02927	780.54871	136.57532	280.40442	875.06415	102.25919	235.87196	872.43988	101.30846	339.31625	240.51743	67.11682	125.11102	553.60571	54.51597	85.20309	455.63629	36.09520	148.17172	446.68765	31.88119	29.76371	392.37274	30.84756	44.03040	430.43439	94.94678	99.67554	499.23129	35.10738	139.17189	492.18582	39.75937	35.49855	350.11130	1054.05042	161.45047 
54	0.442	607.40985	1451.66492	141.80212	443.80237	1551.24768	137.27353	487.74771	1544.23999	300.40259	477.78885	1539.32568	2.53815	638.63110	1292.57312	153.63412	360.70612	1334.18701	154.48521	548.09656	1025.42004	297.52136	555.18011	1024.34631	23.53905	361.08917	1057.07056	214.33234	356.47400	1048.53442	110.50851	451.40521	839.11835	-16.46017	453.64020	614.74561	20.61419	544.89758	709.09900	62.70047	414.06882	377.78967	26.81733	351.34769	186.33089	67.46724	416.60266	272.10858	100.18552	529.38275	836.71490	352.00308	609.49719	613.59308	328.28357	645.23029	781.02911	282.17230	629.47845	459.18390	341.87430	687.55939	210.88905	316.43835	715.56219	346.49338	274.16113	639.85559	70.61658	260.69153	945.40723	139.45535	287.02307	861.36853	94.91494	231.93001	852.13940	87.82549	346.25610	803.52814	75.96037	335.28226	805.19421	141.24304	280.67310	901.31244	110.32610	237.09174	897.67261	109.20554	340.50360	240.72734	67.47710	125.23590	553.88849	54.16086	85.21770	455.74524	36.07825	148.09973	446.64926	31.87593	29.70286	392.53928	30.85825	44.26921	430.59384	94.88613	99.67376	499.38431	34.93917	139.12248	492.46872	39.64305	35.44274	358.78159	1052.80249	162.42043 
55	0.450	615.76422	1450.38916	142.47638	452.26553	1549.98499	137.94814	496.23679	1543.02759	301.06400	486.08438	1537.75244	3.15229	647.05640	1291.16919	154.08841	369.19125	1332.94666	155.66982	557.39587	1023.77942	297.69760	563.31268	1023.46442	23.62365	370.04828	1055.67859	215.37628	364.98434	1047.33716	111.53489	458.37872	838.39679	-15.99480	459.35986	614.12457	19.91905	551.25885	707.91339	62.80211	417.12537	377.52548	26.79991	352.45334	186.68268	67.58150	419.03922	271.68146	100.24035	535.13440	833.81439	351.75143	614.88824	610.66083	327.36505	651.62476	777.55029	282.61121	639.26776	456.74988	340.43018	707.52148	211.20517	315.88235	730.93982	347.68353	273.87253	665.44037	69.16837	259.83936	968.52820	148.52129	288.68527	886.34338	101.47179	232.32573	876.23395	92.87460	346.12082	828.45148	79.71783	335.15784	828.39539	145.46597	281.15714	925.89185	118.34224	238.11479	921.44604	116.11622	341.47723	240.83319	67.78442	125.27240	554.02386	53.85579	85.19065	455.79037	35.98672	148.09175	446.97372	31.68685	30.06012	392.42670	30.97694	44.21573	430.76614	94.93144	99.70135	499.47488	34.78370	139.10323	492.60168	39.35195	35.41460	367.51633	1051.50781	163.45558 
56	0.458	624.11359	1449.06860	143.11377	460.60181	1548.65308	138.69684	504.66180	1541.84631	301.72815	494.25500	1536.18787	3.87050	655.54572	1289.95337	154.67116	377.75540	1331.53894	156.93903	566.83063	1022.23724	297.90317	571.58868	1022.57434	23.76219	379.13141	1054.27930	216.44363	373.63077	1046.14722	112.58342	465.92636	837.70917	-15.20402	464.49472	613.58411	20.98802	558.19415	706.76160	63.22914	420.47720	377.15866	26.91388	353.73877	186.87581	67.67960	421.16977	271.45673	100.29453	540.92285	830.82269	351.41437	620.60999	607.80310	326.54251	658.39722	774.00757	283.07727	649.15497	454.54807	338.97025	726.31311	211.61864	315.18021	745.55939	349.07959	273.65878	689.45898	68.36473	258.71115	989.80359	156.59038	289.84634	909.63068	107.11501	233.02698	898.99469	98.28447	346.39676	851.36407	83.38860	335.03815	849.88654	149.26138	281.31903	948.47028	125.10318	238.99248	943.35406	122.78859	342.32196	240.88908	68.21165	125.41959	554.17963	53.56693	85.12279	455.82193	36.01513	148.11954	446.99582	31.60786	30.02666	392.59457	30.78919	44.16903	431.09076	94.88881	99.68713	499.59030	34.70143	139.06723	492.70956	39.17019	35.37476	376.38107	1050.21326	164.51352 
